<svg xmlns="http://www.w3.org/2000/svg"  viewBox="0 0 100 100" width="500px" height="500px"><circle cx="77" cy="13" r="1" fill="#f1bc19"/><circle cx="50" cy="50" r="37" fill="#e4e4f9"/><circle cx="83" cy="15" r="4" fill="#f1bc19"/><circle cx="87" cy="24" r="2" fill="#8889b9"/><circle cx="81" cy="76" r="2" fill="#fbcd59"/><circle cx="15" cy="63" r="4" fill="#fbcd59"/><circle cx="25" cy="87" r="2" fill="#8889b9"/><circle cx="23.5" cy="67.5" r="2.5" fill="#fff"/><circle cx="77.5" cy="30.5" r="1.5" fill="#fff"/><path fill="#8889b9" d="M75.598,48.799c-3.41,11.28-9.06,8.24-9.92,7.43c0,0,2.4-3.71,2.4-7.71s-1.93-8.18-4.93-11.18 s-6.67-5.33-4.25-7.84c1.96-2.03,5.77-1.45,11.17,4.85C75.598,40.789,75.598,47.299,75.598,48.799z"/><path fill="#2100c4" d="M60.971,50.369c-0.16-0.04-0.31-0.04-0.46-0.02C60.661,50.319,60.811,50.319,60.971,50.369z" opacity=".29"/><path fill="#fbcd59" d="M38.714,57.239c0.13,1.04,0.36,2.52,0.84,4.19c-0.06,0.03-0.11,0.06-0.17,0.08 c-3.54,1.45-9.98,2.6-14.97-3.17l-0.01-0.01c-0.12-0.35-0.23-0.71-0.33-1.07c-0.08-0.28-0.15-0.57-0.22-0.86 c-0.06-0.26-0.11-0.52-0.16-0.78c-0.07-0.38-0.13-0.77-0.18-1.16c-0.02-0.15-0.04-0.3-0.05-0.46c-0.01-0.13-0.03-0.26-0.03-0.4 c-0.02-0.18-0.03-0.36-0.04-0.54c-0.01-0.29-0.02-0.59-0.02-0.88c0-13,8.29-23.73,13.84-23.66c1.56,0.02,2.8,1.01,3.46,2.67 c0.83,2.08,0.29,8.01-1.55,15.06c-0.08,0.32-0.16,0.64-0.23,0.96C38.164,50.669,38.314,54.129,38.714,57.239z"/><path fill="#2100c4" d="M49.521,69.729c-0.17,0.15-0.35,0.3-0.52,0.44l0.01-0.02 C49.181,70.009,49.351,69.869,49.521,69.729z" opacity=".29"/><path fill="#efa21b" d="M52.376,67.162c-0.27,0.35-0.55,0.7-0.85,1.04c-0.29,0.34-0.61,0.67-0.94,0.97 c-0.14,0.14-0.28,0.28-0.43,0.4c-0.02,0.02-0.04,0.04-0.06,0.06c-0.17,0.14-0.34,0.28-0.51,0.42l-0.01,0.02h-0.01 c-0.35,0.28-0.71,0.54-1.09,0.78c-0.19,0.12-0.38,0.23-0.58,0.34s-0.4,0.21-0.6,0.31c-0.22,0.11-0.44,0.21-0.67,0.29 c-0.38,0.14-0.77,0.27-1.17,0.36c-0.7,0.18-1.44,0.27-2.21,0.27c-0.23,0-0.47-0.01-0.7-0.02c-0.24-0.01-0.47-0.02-0.71-0.05 c-0.27-0.02-0.55-0.06-0.82-0.1c-0.2-0.03-0.4-0.06-0.6-0.1c-0.16-0.03-0.32-0.06-0.48-0.09c-0.15-0.03-0.3-0.07-0.45-0.1 c-0.64-0.16-1.28-0.35-1.92-0.58c-0.24-0.08-0.48-0.17-0.71-0.27c-2.28-0.92-4.49-2.29-6.43-4.02c-0.18-0.16-0.36-0.32-0.53-0.49 c-0.35-0.33-0.69-0.67-1.01-1.02c-0.16-0.17-0.31-0.34-0.46-0.51c-0.17-0.2-0.33-0.39-0.49-0.59c-0.15-0.19-0.3-0.38-0.45-0.57 c-0.47-0.63-0.91-1.28-1.31-1.95c-0.22-0.37-0.43-0.76-0.63-1.15c-0.37-0.77-0.905-1.674-1.235-2.534 c-0.02-0.04-0.04-0.09-0.05-0.13c4.99,5.77,11.615,4.714,15.155,3.264c0.06-0.02,0.11-0.05,0.17-0.08 c0.01,0.01,0.01,0.01,0.01,0.02C42.376,70.842,49.566,69.482,52.376,67.162z"/><path fill="#ee3e54" d="M63.028,51.658c-0.08-0.12-0.16-0.24-0.24-0.34c-0.16-0.22-0.32-0.4-0.47-0.54 c-0.09-0.09-0.19-0.17-0.28-0.23c-0.05-0.03-0.09-0.07-0.14-0.09c-0.05-0.03-0.1-0.06-0.14-0.07c-0.09-0.05-0.18-0.08-0.27-0.09 c-0.16-0.05-0.31-0.05-0.46-0.02c-0.07,0.02-0.14,0.03-0.2,0.05c-0.13,0.04-0.26,0.1-0.38,0.19c-0.13,0.08-0.26,0.18-0.38,0.3 c-0.06,0.05-0.13,0.11-0.18,0.18c-0.07,0.07-0.14,0.15-0.21,0.23c-0.14,0.17-0.27,0.35-0.4,0.55c-0.34,0.49-0.66,1.07-0.97,1.69 c-0.42,0.85-0.75,1.59-1,2.24c-0.1,0.27-0.19,0.52-0.27,0.76c-0.1,0.29-0.19,0.58-0.27,0.85c-0.08,0.27-0.14,0.53-0.2,0.78 c-0.1,0.4-0.18,0.77-0.27,1.14c-0.39,1.65-1.662,5.004-3.922,7.924c-2.81,2.32-10.058,3.706-12.838-5.784 c0-0.01,0-0.01-0.01-0.02c3.57-1.65,9.93-10.67,13.59-13.11c3-2,6.3-2,8.07,0.2C61.768,49.168,62.278,49.848,63.028,51.658z"/><path fill="#2100c4" d="M60.971,50.369c-0.16-0.04-0.31-0.04-0.46-0.02C60.661,50.319,60.811,50.319,60.971,50.369z" opacity=".29"/><path fill="#ea4989" d="M75.404,48.417c0,8.64-4.84,17.661-10.3,17.661c-4,0-6.806-1.955-8.806-6.615 c-0.352-0.844,0.087-2.186,0.167-2.456c0.08-0.27,0.17-0.56,0.27-0.85c0.08-0.24,0.17-0.49,0.27-0.76c0.25-0.65,0.58-1.39,1-2.24 c0.31-0.62,0.63-1.2,0.97-1.69c0.13-0.2,0.26-0.38,0.4-0.55c0.07-0.08,0.14-0.16,0.21-0.23c0.06-0.07,0.12-0.13,0.18-0.18 c0.12-0.12,0.25-0.22,0.38-0.3c0.12-0.09,0.25-0.15,0.38-0.19c0.06-0.02,0.13-0.03,0.2-0.05c0.15-0.02,0.3-0.02,0.46,0.02 c0.09,0.02,0.18,0.05,0.27,0.09c0.04,0.01,0.09,0.04,0.14,0.07c0.05,0.02,0.09,0.06,0.14,0.09c0.09,0.06,0.19,0.14,0.28,0.23 c0.15,0.14,0.31,0.32,0.47,0.54c0.07,0.1,0.15,0.22,0.23,0.34c0.69,1.55,1.316,3.384,2.766,4.764 C66.34,56.921,71.994,59.697,75.404,48.417z"/><path fill="#472b29" d="M74.289,52.122c-0.054,0-0.107-0.012-0.159-0.035c-0.188-0.088-0.269-0.311-0.181-0.499 c0.497-1.064,0.926-2.311,1.273-3.707c0.051-0.2,0.252-0.326,0.455-0.273c0.201,0.05,0.323,0.253,0.273,0.455 c-0.36,1.442-0.805,2.735-1.322,3.843C74.565,52.042,74.43,52.122,74.289,52.122z"/><path fill="#472b29" d="M72.428,55.018c-0.09,0-0.18-0.032-0.252-0.097c-0.153-0.139-0.165-0.376-0.026-0.53 c0.319-0.353,0.626-0.753,0.912-1.189c0.111-0.174,0.344-0.225,0.519-0.108c0.174,0.113,0.222,0.346,0.108,0.519 c-0.307,0.47-0.638,0.901-0.982,1.283C72.632,54.976,72.53,55.018,72.428,55.018z"/><path fill="#472b29" d="M67.852,57.244c-1.263,0-2.266-0.433-2.656-0.889c-0.135-0.157-0.116-0.395,0.041-0.529 s0.394-0.116,0.529,0.041c0.347,0.406,2.39,1.168,4.589-0.031c0.185-0.1,0.411-0.032,0.509,0.149 c0.1,0.183,0.032,0.41-0.149,0.509C69.714,57.039,68.722,57.244,67.852,57.244z"/><path fill="#472b29" d="M62.484,51.382c-0.115,0-0.229-0.054-0.303-0.154c-0.14-0.19-0.281-0.354-0.424-0.486 c-0.081-0.081-0.16-0.145-0.231-0.193l0.107-0.38l-0.199,0.317l-0.096-0.052c-0.105-0.044-0.171-0.066-0.236-0.08 c-0.108-0.028-0.209-0.03-0.329-0.015l-0.062,0.017c-0.181,0.052-0.268,0.095-0.344,0.152c-0.166,0.124-0.401,0.091-0.524-0.076 c-0.125-0.166-0.091-0.401,0.075-0.525c0.145-0.108,0.312-0.192,0.496-0.248c0.034-0.012,0.083-0.023,0.134-0.035 c0.018-0.005,0.106-0.026,0.125-0.028c0.217-0.028,0.411-0.019,0.602,0.028c0.103,0.022,0.218,0.061,0.331,0.112 c0.03,0.001,0.107,0.047,0.175,0.087c0.025,0.006,0.08,0.046,0.117,0.073c0.152,0.102,0.272,0.199,0.381,0.307 c0.167,0.156,0.341,0.355,0.508,0.584c0.122,0.167,0.086,0.401-0.082,0.523C62.639,51.358,62.562,51.382,62.484,51.382z"/><path fill="#472b29" d="M58.381,52.812c-0.062,0-0.124-0.015-0.182-0.047c-0.181-0.101-0.247-0.328-0.146-0.51 c0.199-0.359,0.401-0.697,0.612-1.002c0.119-0.17,0.353-0.212,0.522-0.095c0.17,0.118,0.212,0.352,0.095,0.522 c-0.197,0.285-0.388,0.602-0.573,0.938C58.641,52.742,58.513,52.812,58.381,52.812z"/><path fill="#472b29" d="M56.297,59.839c-0.146,0-0.286-0.087-0.346-0.23c-0.386-0.925,0.009-2.23,0.139-2.659 c0.096-0.323,0.188-0.618,0.29-0.914c0.08-0.239,0.171-0.493,0.272-0.767c0.072-0.194,0.287-0.293,0.481-0.222 s0.294,0.287,0.222,0.481c-0.098,0.266-0.187,0.512-0.266,0.748c-0.1,0.289-0.188,0.574-0.267,0.838 c-0.385,1.272-0.309,1.896-0.181,2.205c0.08,0.191-0.011,0.411-0.201,0.49C56.394,59.83,56.345,59.839,56.297,59.839z"/><path fill="#472b29" d="M48.423,69.174c-0.185,0-0.347-0.138-0.371-0.326c-0.027-0.205,0.117-0.394,0.323-0.421 c1.401-0.185,2.808-0.766,3.764-1.554c0.157-0.132,0.396-0.11,0.527,0.051c0.132,0.159,0.109,0.396-0.051,0.527 c-1.059,0.874-2.607,1.518-4.143,1.72C48.456,69.173,48.439,69.174,48.423,69.174z"/><path fill="#472b29" d="M44.588,68.702c-0.048,0-0.097-0.009-0.144-0.028c-0.608-0.252-1.185-0.586-1.714-0.994 c-0.164-0.126-0.194-0.361-0.068-0.525c0.126-0.165,0.36-0.196,0.526-0.068c0.477,0.367,0.996,0.668,1.543,0.895 c0.191,0.079,0.282,0.299,0.203,0.49C44.875,68.615,44.735,68.702,44.588,68.702z"/><path fill="#472b29" d="M41.228,65.942c-0.117,0-0.232-0.055-0.305-0.156c-0.829-1.157-1.499-2.598-1.991-4.281 c-0.058-0.199,0.056-0.407,0.254-0.466c0.2-0.057,0.407,0.057,0.465,0.255c0.469,1.603,1.102,2.967,1.881,4.055 c0.121,0.169,0.082,0.403-0.086,0.523C41.379,65.92,41.303,65.942,41.228,65.942z"/><g><path fill="#472b29" d="M43.163,72.977c-4.61,0-9.68-2.22-13.563-5.938c-4.256-4.075-6.6-9.364-6.6-14.891 c0-9.626,4.327-17.317,8.033-20.978c2.08-2.055,4.242-3.183,6.096-3.183c0.019,0,0.037,0,0.055,0l0,0 c1.688,0.021,3.073,1.086,3.799,2.922c0.735,1.86,0.272,6.393-1.456,14.265c-1.206,5.497-0.962,12.83,0.042,15.88 c1.967-0.827,4.721-4.005,7.388-7.084c2.191-2.529,4.26-4.917,5.896-6.017c3.192-2.146,6.629-2.034,8.551,0.278 c0.678,0.815,1.105,1.836,1.559,2.918c0.579,1.381,1.229,2.933,2.546,4.434c0.629-1.053,2.213-4.008,2.213-7.112 c0-3.836-1.799-7.94-4.812-10.977c-0.539-0.544-1.101-1.065-1.644-1.57c-1.845-1.715-3.438-3.197-3.484-4.802 c-0.021-0.712,0.276-1.396,0.886-2.032c0.761-0.796,1.768-1.2,2.888-1.167c2.45,0.071,5.497,2.166,8.81,6.058 c3.669,4.31,5.608,9.417,5.608,14.768c0,9.101-5.282,17.704-10.869,17.704c-3.917,0-6.803-1.987-8.796-6.067 C54.907,64.634,50.618,72.977,43.163,72.977z M37.128,28.736c-1.655,0-3.63,1.052-5.568,2.966c-3.603,3.56-7.81,11.05-7.81,20.445 c0,9.285,8.48,20.079,19.413,20.079c7.564,0,11.815-9.628,12.709-13c0.041-0.155,0.176-0.267,0.335-0.278 c0.176-0.017,0.311,0.08,0.372,0.228c1.896,4.453,4.604,6.527,8.524,6.527c5.106,0,10.119-8.397,10.119-16.954 c0-5.171-1.877-10.109-5.429-14.282c-4.008-4.708-6.704-5.749-8.261-5.794c-0.947-0.024-1.706,0.288-2.324,0.936 c-0.472,0.492-0.693,0.98-0.679,1.491c0.038,1.292,1.597,2.741,3.246,4.275c0.551,0.512,1.119,1.041,1.666,1.591 c3.149,3.175,5.029,7.476,5.029,11.505c0,4.091-2.491,7.785-2.598,7.94c-0.063,0.093-0.166,0.152-0.279,0.162 c-0.108,0.011-0.224-0.033-0.302-0.115c-1.635-1.71-2.371-3.468-3.021-5.019c-0.45-1.073-0.838-2-1.443-2.729 c-1.665-2.001-4.7-2.056-7.557-0.136c-1.553,1.044-3.59,3.396-5.748,5.886c-2.892,3.338-5.882,6.79-8.076,7.432 c-0.188,0.051-0.383-0.042-0.455-0.223c-1.295-3.291-1.391-11.23-0.2-16.658c1.648-7.508,2.15-12.161,1.491-13.829 c-0.618-1.562-1.722-2.431-3.11-2.448C37.159,28.737,37.144,28.736,37.128,28.736z"/></g></svg>